<?xml version="1.0" standalone="no"?>
<!DOCTYPE svg PUBLIC "-//W3C//DTD SVG 1.1//EN" "http://www.w3.org/Graphics/SVG/1.1/DTD/svg11.dtd" >
<svg xmlns="http://www.w3.org/2000/svg">
<defs>
	<style><![CDATA[
		
	]]></style>
	
	<g class="icon_william-sonoma">
	<line stroke-width="1" x1="" y1="" x2="" y2="" stroke="#449FDB" opacity=""></line>

	<path d="M121.181 26.895c0 0.114 0 0.19 0 0.229 0-0.038 0-0.114 0-0.229zM134.59 25.562c0 0.114 0 0.19 0 0.229 0-0.038 0-0.152 0-0.229zM194.857 17.257c2.514 0 5.029 0 7.467 0 0 0.952 0 1.981 0 2.933-2.324 0-4.648 0-7.010 0-0.343 0-0.533 0.19-0.533-0.229-0.114 0-0.19 0-0.229 0 0.152-0.952 0.19-1.79 0.305-2.705zM345.333 11.048c-0.724 2.019-2.933 5.6-2.933 7.771 0.838 0 5.6 0.19 5.6-0.229 0.114 0 0.19 0 0.229 0-0.381-2.514-1.333-5.562-2.895-7.543zM123.886 10.819c-0.724 1.981-2.933 6.019-2.933 8.076 0.838 0 5.6 0.19 5.6-0.229 0.114 0 0.19 0 0.229 0-0.457-2.781-1.486-5.638-2.895-7.848zM289.638 5.181c0 0.114 0 0.19 0 0.229-5.905 2.743-5.067 22.057 2.629 21.257 7.010-0.724 5.752-17.752 1.257-20.914-1.029-0.61-2.438-0.571-3.886-0.571zM237.714 5.181c0 0.114 0 0.19 0 0.229-5.905 2.743-5.067 22.057 2.629 21.257 6.933-0.724 5.752-17.752 1.257-20.914-1.029-0.61-2.514-0.571-3.886-0.571zM109.943 4.381v0zM304.952 3.81c2.133 0 7.962-0.419 9.448 0.343 0.648 0.305 4.724 12.076 4.724 13.333 0.114 0 0.19 0 0.229 0 0-0.114 0-0.19 0-0.229 0.114 0 0.19 0 0.229 0 0.305-1.905 3.162-12 4.229-12.914 1.143-0.952 6.438-0.533 8.381-0.533 0.343 0 0.533-0.114 0.533 0.229 0.114 0 0.19 0 0.229 0-0.114 0.419-0.19 0.914-0.229 1.333-0.533 0.114-2.4 0.19-2.4 0.762-0.724 1.6-0.419 17.981 0.343 19.352 0.343 0.648 1.867 0.724 2.629 0.724 0 0.419 0.19 1.333-0.229 1.333 0 0.114 0 0.19 0 0.229-3.276 0-6.59 0-9.905 0-0.343 0-0.762 0.19-0.762-0.229-0.114 0-0.19 0-0.229 0 0-0.419 0-0.914 0-1.333 0.914-0.114 1.79-0.19 2.705-0.229 0.533-5.79 0.229-12.19 0.229-18.21-0.114 0-0.19 0-0.229 0 0 0.114 0 0.19 0 0.229-0.495 1.333-0.952 2.629-1.448 3.962-1.181 3.543-2.21 7.162-3.352 10.743-0.495 1.6-0.914 3.238-1.371 4.838-0.838 0-1.181-0.114-1.6-0.762-0.61-1.6-1.143-3.162-1.714-4.762-1.067-3.238-2.133-6.438-3.238-9.676-0.495-1.448-1.029-2.857-1.486-4.381-0.114 0-0.19 0-0.229 0 0 3.657 0 7.352 0 11.010 0 1.676-0.19 3.543 0.229 5.029 0.229 0.914 0.724 1.486 1.486 2.019 0.343 0.229 1.562 0.762 1.181 1.371-0.533 1.029-6.514 0.648-8 0.648-0.343 0-0.229 0.076-0.229-0.229-0.114 0-0.19 0-0.229 0 0-0.229 0-0.533 0-0.762 0.952-0.648 2.21-1.143 2.743-2.286 0.724-1.6 0.495-3.81 0.495-5.79 0-4 0-8.076 0-12.076-0.114 0-0.19 0-0.229 0 0 0.343 0.19 0.762-0.229 0.762 0.114-0.648 0.19-1.257 0.229-1.867-0.533-0.076-2.705-0.114-2.705-0.533-0.114 0-0.19 0-0.229 0-0.19-0.343-0.114-0.876 0-1.448zM253.79 3.81c1.981 0 6.286-0.495 7.695 0.305 0.61 0.305 11.276 14.4 11.276 14.4 0.114 0 0.19 0 0.229 0 0-0.343-0.114-0.229 0.229-0.229 0-3.048 0.495-8-0.229-10.629-0.495-1.867-3.276-2.286-3.276-3.543 0.114 0 0.19 0 0.229 0 0-0.114 0-0.19 0-0.229 2.705 0 5.371 0 8 0 0.343 0 0.229-0.114 0.229 0.229 0.114 0 0.19 0 0.229 0-0.61 1.905-2.514 1.79-3.048 4.076-0.61 2.4-0.19 5.676-0.19 8.229 0 3.962-0.229 7.695-0.229 11.543-1.029-0.076-1.867-0.114-2.552-0.648-1.257-1.029-12.952-16.571-12.952-17.029-0.19 0-0.343 0-0.533 0 0 3.276 0 6.629 0 9.905 0 1.448-0.19 3.048 0.343 4.229 0.533 1.143 1.448 1.562 2.438 2.095 0.343 0.19 1.333 1.448 0.648 1.448 0 0.114 0 0.19 0 0.229-2.705-0.419-5.676-0.229-8.533-0.229-0.343 0-0.229 0.076-0.229-0.229-0.114 0-0.19 0-0.229 0 0-0.343 0-0.724 0-1.067 1.067-0.343 2.21-0.914 2.743-1.981 1.067-2.21 0.648-7.467 0.762-10.324 0.076-1.981 0.61-4.419 0-6.4-0.495-1.6-3.543-2.705-3.543-2.971-0.19-0.229-0.495-0.533 0-0.533 0.305-0.267 0.381-0.457 0.495-0.648zM99.505 3.81c3.657 0 7.352 0 11.010 0-0.076 0.495 0.076 1.6-0.533 1.6-0.762 0.114-1.6 0.19-2.4 0.229 0 6.819 0 13.562 0 20.381 0.533 0 2.705-0.229 2.705 0.229 0.114 0 0.19 0 0.229 0 0 0.533 0 1.067 0 1.6-3.657 0-7.276 0-11.010 0 0-0.495-0.19-1.6 0.229-1.6 0-0.114 0-0.19 0-0.229 0.533-0.076 1.714 0 2.019-0.533 0.838-1.448 0.343-4.381 0.343-6.21 0-4.533 0-9.143 0-13.676-0.914 0-1.79 0-2.705 0 0.114-0.533 0.114-1.105 0.114-1.79zM75.695 3.81c4 0 8 0 12.076 0 0 0.419 0.19 1.6-0.229 1.6 0 0.114 0 0.19 0 0.229-1.067 0-2.133 0-3.238 0 0 2.819-0.495 18.895 0.419 19.962 0.648 0.762 2.552 0.724 3.581 0.724 1.181-0.61 2.324-0.533 3.352-1.486 1.79-1.6 2.438-5.79 4.648-5.79-0.114 2.857-0.229 5.562-0.229 8.305 0 0.343 0.076 0.229-0.229 0.229 0 0.114 0 0.19 0 0.229-6.286 0-12.419-0.229-18.476-0.229-0.495 0-1.867 0.19-1.867-0.229-0.114 0-0.19 0-0.229 0 0-0.343-0.19-0.762 0.229-0.762 0.838-0.762 2.324-0.343 2.971-1.486 0.762-1.448 0.914-16.419 0.305-18.286-0.533-1.6-3.238-1.029-3.238-2.819 0 0 0.038-0.038 0.152-0.19zM52.114 3.81c4 0 8 0 12.076 0 0 0.419 0.19 1.6-0.229 1.6 0 0.114 0 0.19 0 0.229-1.067 0-2.133 0-3.238 0 0 6.286 0 12.533 0.076 18.781 0 0.495-0.114 1.6 0.495 1.6 0.914 0.305 1.905 0.229 2.933 0.229 6.171-0.114 5.6-7.238 8.61-7.238-0.114 2.857-0.229 5.562-0.229 8.305 0 0.343 0.076 0.229-0.229 0.229 0 0.114 0 0.19 0 0.229-4.724 0-9.448 0-14.21 0-1.79 0-4 0.305-5.562-0.229-0.229-0.076-1.333-0.838-0.61-0.838 0-0.19 0-0.343 0-0.533 0.533-0.19 2.933-0.19 2.933-0.762 1.143-2.705 0.533-9.676 0.533-13.143 0-1.714 0.305-4-0.229-5.486-0.61-1.6-3.276-0.952-3.276-2.819-0.038 0.038 0.076 0 0.152-0.152zM37.943 3.81c3.657 0 7.352 0 11.010 0-0.076 0.495 0.076 1.6-0.533 1.6-0.762 0.114-1.6 0.19-2.4 0.229 0 6.819 0 13.562 0 20.381 0.533 0 2.705-0.229 2.705 0.229 0.114 0 0.19 0 0.229 0 0 0.533 0 1.067 0 1.6-3.657 0-7.276 0-11.010 0 0-0.495-0.19-1.6 0.229-1.6 0-0.114 0-0.19 0-0.229 0.533-0.076 1.714 0 2.019-0.533 0.648-1.181 0.343-3.352 0.343-4.838 0-5.029 0-9.981 0-15.010-0.914 0-1.79 0-2.705 0 0.114-0.571 0.114-1.143 0.114-1.829zM2.552 3.81c3.238 0 6.438 0 9.638 0 0 0.419 0.19 1.333-0.229 1.333 0 0.114 0 0.19 0 0.229-0.495 0-1.6-0.19-1.6 0.229-0.114 0-0.19 0-0.229 0 0.229 3.581 1.905 7.162 3.048 10.4 0.419 1.257 0.838 2.514 1.257 3.81 0.114 0 0.19 0 0.229 0 0-0.114 0-0.19 0-0.229 0.952-1.79 2.705-6.819 2.819-8.838 0.076-1.181-0.419-2.705-0.838-3.657-0.343-0.762-2.286-1.981-2.286-2.552 0-0.114 0.076-0.19 0.076-0.305 0.152-0.648 7.124-0.419 8.495-0.419 0.343 0 0.229-0.114 0.229 0.229 0.114 0 0.19 0 0.229 0 0 0.343 0 0.724 0 1.067-0.648 0.114-1.486 0.229-1.79 0.952-0.61 1.676 2.438 9.219 3.162 11.124 0.229 0.724 0.495 1.448 0.762 2.133 0.343 0 0.229-0.114 0.229 0.229 0.114 0 0.19 0 0.229 0 0-0.114 0-0.19 0-0.229 0.762-1.79 3.771-10.629 2.857-12.61-0.343-0.914-1.029-1.257-1.79-1.676-0.229-0.114-1.486-1.029-0.838-1.029 0-0.114 0-0.19 0-0.229 2.743 0 5.562 0 8.305 0-0.495 1.714-2.324 2.21-3.048 3.81-0.762 1.6-1.143 3.352-1.676 5.067-0.952 3.276-1.905 6.59-2.933 9.867-0.61 1.79-1.143 3.581-1.714 5.448-0.648-0.114-1.486-0.19-1.981-0.648-0.686-0.838-4.381-11.886-4.381-13.219-0.19 0-0.343 0-0.533 0-0.838 2.629-1.676 5.181-2.552 7.81-0.533 1.714-0.838 4.19-1.981 5.676-0.305 0.419-0.952 0.495-1.448 0.305-1.029-0.343-1.333-2.4-1.6-3.276-1.371-4.229-2.743-8.419-4.114-12.686-0.533-1.676-0.914-3.695-1.867-5.181-0.343-0.724-1.333-1.333-2.095-1.333-0.038-0.495-0.038-1.029-0.038-1.6zM346.171 3.581c0.838 0.076 1.562 0.076 2.133 0.533 1.029 0.838 1.257 2.514 1.714 3.657 1.562 3.771 3.124 7.581 4.61 11.352 0.724 1.905 1.371 4.381 2.705 5.981 0.495 0.61 1.676 1.257 2.438 1.257-0.076 0.495 0 1.333-0.533 1.333-2.552 0.762-7.010 0.229-9.905 0.229-0.343 0-0.229 0.076-0.229-0.229-0.114 0-0.19 0-0.229 0 0.076-0.495 0-1.333 0.533-1.333 0.343-0.19 0.762-0.343 1.143-0.533 0.648-1.181-0.076-4.229-1.257-4.762-1.029-0.495-6.705-0.533-7.543 0.114-0.495 0.419-0.762 1.143-0.914 1.714-0.914 3.124 2.705 3.543 2.705 3.771 0.114 0 0.19 0 0.229 0 0 0.343 0.19 1.067-0.229 1.067 0 0.114 0 0.19 0 0.229-2.743 0-5.562 0-8.305 0-0.343 0-0.533 0.19-0.533-0.229-0.114 0-0.19 0-0.229 0 0-0.343 0-0.724 0-1.067 0.838-0.495 1.676-0.838 2.4-1.6 1.143-1.333 1.562-2.971 2.286-4.495 1.448-3.771 2.933-7.543 4.419-11.352 0.571-2.057 1.143-4.038 2.59-5.638zM149.105 3.581c0.495 0.19 1.181 0.419 1.486 0.914 0.648 1.067 0.914 2.438 1.257 3.657 0.648 2.019 1.333 4.114 1.905 6.171 0.419 1.067 0.838 2.133 1.181 3.276 0.114 0 0.19 0 0.229 0 0.419-1.867 3.543-12.838 4.724-13.371 1.79-0.838 6.4-0.305 8.648-0.305 0 0.419 0.19 1.6-0.229 1.6 0 0.114 0 0.19 0 0.229-0.914 0.076-2.019 0.076-2.4 0.952-0.61 1.371-0.076 3.39-0.076 4.952 0 3.048 0 6.095 0 9.143 0 1.448-0.229 3.238 0.229 4.495 0.419 1.067 2.705 0.648 2.705 1.181 0.114 0 0.19 0 0.229 0-0.076 0.495 0 1.333-0.533 1.333-2.933 0.762-7.010 0.229-10.171 0.229-0.343 0-0.229 0.076-0.229-0.229-0.114 0-0.19 0-0.229 0 0-0.419 0-0.914 0-1.333 0.114 0 0.19 0 0.229 0 0-0.114 0-0.19 0-0.229 0.762 0 1.6 0 2.4 0 0.533-5.79 0.229-12.19 0.229-18.21-0.19 0-0.343 0-0.533 0-1.905 6.171-3.771 12.305-5.676 18.476-0.19 0.495-0.419 0.952-1.029 0.952-0.533 0-0.724-0.343-0.952-0.724-2.133-4.419-3.162-9.448-4.762-14.095-0.495-1.562-1.029-3.048-1.486-4.61-0.19 0-0.343 0-0.533 0 0 4.114 0.076 8.495 0.229 12.305 0.076 1.333 0.114 2.629 0.19 3.962 0.419 1.79 3.048 2.019 3.048 3.81-2.933 0-5.905 0-8.838 0 0-0.343 0-0.724 0-1.067 1.029-0.343 2.21-0.952 2.629-2.019 0.61-1.486 0.305-3.771 0.305-5.486 0-4.648-0.229-9.219-0.229-13.676-1.067-0.114-1.981-0.533-2.933-0.533 0-0.229 0-0.533 0-0.762 2.59-1.333 6.286-0.19 8.99-0.99zM124.724 3.581c0.762 0.076 1.562 0.076 2.133 0.533 1.029 0.914 1.333 2.552 1.79 3.771 1.181 2.933 6.095 16.838 8.114 17.943 0.724 0.343 1.371 0.61 1.371 1.6 0 0.343 0 0.305-0.305 0.305-2.857 0.762-6.743 0.229-9.905 0.229-0.343 0-0.229 0.076-0.229-0.229-0.114 0-0.19 0-0.229 0 0.076-0.495 0-1.333 0.533-1.333 0.343-0.19 0.762-0.343 1.143-0.533 0.648-1.181-0.076-4.229-1.257-4.762-1.029-0.495-6.705-0.533-7.543 0.114-0.61 0.495-0.762 1.257-0.952 1.981-0.762 2.857 2.743 3.276 2.743 3.581 0.114 0 0.19 0 0.229 0 0 0.343 0.19 1.067-0.229 1.067 0 0.114 0 0.19 0 0.229-2.743 0-5.562 0-8.305 0-0.343 0-0.533 0.19-0.533-0.229-0.114 0-0.19 0-0.229 0 0-0.343 0-0.724 0-1.067 0.838-0.495 1.562-0.762 2.286-1.486 1.181-1.257 1.6-2.933 2.286-4.419 1.486-3.771 2.933-7.543 4.419-11.276 0.61-2.248 1.181-4.343 2.667-6.019zM290.171 3.276c2.133 0 4.381 0.305 6.095 1.181 7.771 4.076 9.219 16.19 1.905 21.562-1.6 1.143-3.276 2.095-5.371 2.324-11.162 1.257-16.571-11.848-10.819-20.152 2.095-2.933 5.029-3.886 8.19-4.914zM238.248 3.276c2.4 0 4.914 0.343 6.705 1.562 7.124 4.61 8.648 15.962 1.333 21.219-1.6 1.143-3.276 2.095-5.371 2.324-11.048 1.257-16.914-12.114-10.705-20.267 2.171-2.933 4.8-3.733 8.038-4.838zM214.4 3.276c1.448 0 2.857 0 4.076 0.495 0.952 0.343 2.133 1.371 3.162 1.371 0.229-0.305 2.4-2.438 2.4-1.333 0.114 0 0.19 0 0.229 0 0 2.705 0 5.371 0 8.076 0 0.343 0.076 0.229-0.229 0.229 0 0.114 0 0.19 0 0.229-0.229-0.076-0.495-0.114-0.762-0.19-0.343-0.114-0.61-0.305-0.762-0.648-0.419-0.838-0.838-1.676-1.257-2.552-1.486-2.514-4.495-5.143-7.657-3.657-1.143 0.533-2.095 1.448-2.286 2.743-0.61 4.61 7.695 4.762 10.476 6.286 1.562 0.838 2.705 2.438 3.048 4.19 0.343 1.562 0.19 3.39-0.305 4.838-1.181 3.39-5.181 5.867-9.029 4.952-1.867-0.419-4.114-2.514-5.752-1.257-0.343 0.229-2.095 1.333-2.095 0.61-0.114 0-0.19 0-0.229 0 0-2.743 0-5.562 0-8.305 0-0.343-0.114-0.533 0.229-0.533 0-0.114 0-0.19 0-0.229 2.019 0.343 2.133 2.133 3.124 3.657 1.562 2.438 4.419 5.143 7.581 4.305 1.486-0.343 2.438-1.448 2.933-2.857 0.305-0.914 0-1.905-0.343-2.629-0.533-0.952-1.6-1.486-2.552-1.905-2.933-1.181-6.286-1.067-8.648-3.467-4-4-1.371-12.114 4.648-12.114 0-0.114 0-0.19 0-0.305zM180.648 3.276c1.448 0 2.743 0.076 3.962 0.495 1.029 0.343 2.133 1.448 3.276 1.448 0.229-0.305 2.4-2.438 2.4-1.333 0.114 0 0.19 0 0.229 0 0 2.705 0 5.371 0 8.076 0 0.343 0.076 0.229-0.229 0.229 0 0.114 0 0.19 0 0.229-0.229-0.076-0.495-0.114-0.762-0.19-0.343-0.114-0.61-0.305-0.762-0.648-0.419-0.838-0.838-1.676-1.257-2.552-1.486-2.514-4.495-5.143-7.657-3.657-1.143 0.533-2.095 1.448-2.286 2.743-0.648 4.762 7.81 4.648 10.59 6.324 1.257 0.762 2.21 1.981 2.743 3.352 0.533 1.562 0.495 3.581 0 5.181-1.257 4.114-5.676 6.21-9.981 5.067-1.486-0.419-3.238-2.286-4.724-1.143-0.305 0.229-2.286 1.486-2.286 0.724-0.114 0-0.19 0-0.229 0 0-2.743 0-5.562 0-8.305 0-0.343-0.19-0.533 0.229-0.533 0-0.114 0-0.19 0-0.229 1.905 0.305 2.133 1.981 2.971 3.467 1.448 2.552 4.419 5.257 7.695 4.495 1.371-0.343 2.4-1.333 2.857-2.629 0.305-0.838 0.229-1.714-0.114-2.552-0.495-1.029-1.448-1.6-2.4-2.095-2.971-1.371-6.286-1.257-8.838-3.467-4.495-3.81-1.371-12.267 4.495-12.267 0.076-0.038 0.076-0.114 0.076-0.229z" fill="#000000"></path>
</g>
<g class="icon_pottery-barn">
	<line stroke-width="1" x1="" y1="" x2="" y2="" stroke="#449FDB" opacity=""></line>
	<path d="M13.004 15.319v10.894h1.021v0.545h-6.128v-0.545h1.021v-22.672h-1.021v-0.545h7.217c0.545 0 2.383-0.136 3.404 0.545 1.157 0.749 1.498 1.702 1.498 2.928v5.651c0 0.613-0.136 1.634-1.294 2.383-1.089 0.681-2.86 0.885-4.289 0.885h-1.43zM15.864 5.106c0-0.477 0-0.817-0.272-1.157s-0.749-0.409-1.362-0.409h-1.226v11.302h1.498c0.477 0 0.817-0.136 1.089-0.477s0.204-0.885 0.204-1.226v-8.034z" fill="#000000"></path>
	<path d="M50.996 23.489c0 2.179-1.43 3.54-5.174 3.54-4.085 0-5.174-1.362-5.174-3.54v-14.434c0-2.519 1.77-3.881 5.243-3.881 3.336 0 5.106 1.634 5.106 3.881v14.434zM47.251 7.217c0-1.226-0.477-1.702-1.362-1.634-1.021 0-1.566 0.409-1.566 1.634v17.702c0 0.885 0.272 1.566 1.43 1.566 1.089 0 1.498-0.409 1.498-1.566v-17.702z" fill="#000000"></path>
	<path d="M84.017 5.379v4.289h-0.545v-3.336h-3.132v19.949h0.885v0.477h-5.515v-0.477h0.885v-19.949h-3.132v3.336h-0.545v-4.289z" fill="#000000"></path>
	<path d="M117.106 5.379v4.289h-0.613v-3.336h-3.132v19.949h0.885v0.477h-5.515v-0.477h0.885v-19.949h-3.132v3.336h-0.545v-4.289z" fill="#000000"></path>
	<path d="M143.523 15.387h4.085v-1.838h0.545v4.698h-0.545v-1.906h-4.085v9.464h4.085v-3.2h0.545v4.153h-9.26v-0.477h0.885v-20.426h-0.885v-0.477h9.26v4.153h-0.545v-3.2h-4.085z" fill="#000000"></path>
	<path d="M178.247 15.796c0 0.136 1.362 0.272 2.315 0.885 0.953 0.681 1.089 1.362 1.089 2.315v7.285h0.885v0.477h-4.63v-8.511c0-0.681 0.136-1.294-0.477-1.702-0.409-0.272-1.157-0.204-1.566-0.204h-1.226v10.008h0.885v0.477h-5.515v-0.477h0.885v-20.426h-0.885v-0.545h6.468c0.477 0 2.111-0.136 3.064 0.477 1.021 0.681 1.294 1.498 1.294 2.587v4.562c0 0.204 0.068 1.226-0.749 1.974-0.817 0.681-1.838 0.749-1.838 0.817zM177.089 7.217c0-0.409 0.068-0.681-0.204-1.021-0.34-0.34-0.749-0.34-1.157-0.34h-1.157v10.008h1.362c0.409 0 0.749-0.136 1.021-0.409 0.272-0.34 0.204-0.817 0.204-1.089v-7.149z" fill="#000000"></path>
	<path d="M206.434 19.132l-3.881-13.277h-0.953v-0.477h5.583v0.477h-0.885l3.268 11.234 2.928-11.234h-0.953v-0.477h2.996v0.477h-0.885l-3.472 13.277v7.149h0.885v0.477h-5.515v-0.477h0.885z" fill="#000000"></path>
	<path d="M249.26 17.974v5.379c0 0.953-0.068 1.566-0.681 2.315-0.885 0.953-2.792 1.157-3.608 1.157h-8.987v-0.545h1.021v-22.74h-1.021v-0.545h8.579c1.089 0 1.838 0.204 2.655 0.817 1.294 1.021 1.157 2.247 1.157 2.247v5.719c0 0 0.068 1.157-0.817 1.838-1.089 0.885-1.974 0.953-1.906 1.089 0 0.136 1.498 0.136 2.587 1.089 0.749 0.477 1.021 1.089 1.021 2.179zM241.157 26.213h2.247c0.068 0 0.817 0 1.226-0.272 0.409-0.34 0.545-0.681 0.545-1.157v-8.443c0-0.34 0-0.681-0.272-0.885-0.272-0.272-0.681-0.34-1.157-0.34h-2.587v11.098zM241.157 3.54v10.894h2.179c0.068 0 0.545 0 0.817-0.272s0.204-0.681 0.204-0.885v-8.374c0-0.068 0.068-0.885-0.204-1.157-0.204-0.272-1.157-0.272-1.226-0.272h-1.77z" fill="#000000"></path>
	<path d="M276.902 5.855h-0.953v-0.477h5.719v0.477h-1.021l3.745 20.426h0.885v0.477h-5.583v-0.477h0.749l-0.885-5.991h-4.562l-1.226 5.992h0.885v0.477h-2.928v-0.477h0.817l4.357-20.426zM275.132 19.472h4.221l-1.974-11.643-2.247 11.643z" fill="#000000"></path>
	<path d="M315.37 15.796c0 0.136 1.362 0.272 2.315 0.885 0.953 0.681 1.021 1.362 1.021 2.315v7.285h0.885v0.477h-4.63v-8.511c0-0.681 0.136-1.294-0.477-1.702-0.409-0.272-1.157-0.204-1.566-0.204h-1.226v10.008h0.885v0.477h-5.515v-0.477h0.885v-20.426h-0.885v-0.545h6.468c0.477 0 2.111-0.136 3.064 0.477 1.021 0.681 1.294 1.498 1.294 2.587v4.562c0 0.204 0.068 1.226-0.749 1.974-0.749 0.681-1.77 0.749-1.77 0.817zM314.213 7.217c0-0.409 0.068-0.681-0.204-1.021-0.34-0.34-0.749-0.34-1.157-0.34h-1.157v10.008h1.362c0.409 0 0.749-0.136 1.021-0.409 0.272-0.34 0.204-0.817 0.204-1.089v-7.149z" fill="#000000"></path>
	<path d="M347.983 26.757l-4.494-17.77v17.294h0.885v0.477h-2.928v-0.477h0.953v-20.426h-0.953v-0.477h4.698l4.698 18.519v-18.043h-0.953v-0.477h2.928v0.477h-0.885v20.902z" fill="#000000"></path>
	<path d="M359.149 11.574c-1.634 0-2.928-1.021-2.928-2.996s1.294-2.996 2.928-2.996c1.634 0 2.86 1.021 2.86 2.996 0.068 1.906-1.226 2.996-2.86 2.996zM359.149 5.787c-1.498 0-2.587 0.953-2.587 2.723 0 1.838 1.089 2.723 2.587 2.723s2.587-0.953 2.587-2.723c0.068-1.77-1.089-2.723-2.587-2.723zM360.17 10.145l-1.021-1.43h-0.681v1.43h-0.272v-3.2h1.021c0.613 0 1.021 0.272 1.021 0.885 0 0.545-0.34 0.817-0.817 0.885l1.089 1.43h-0.34zM359.217 7.217h-0.749v1.226h0.749c0.545 0 0.749-0.272 0.749-0.613s-0.204-0.613-0.749-0.613z" fill="#000000"></path>
</g>
</defs>
</svg>